<svg width="40" height="40" viewBox="0 0 40 40" fill="none" xmlns="http://www.w3.org/2000/svg">
<path d="M39.9023 37.3864L38.2047 31.3961C37.8701 30.2157 37.9309 28.9531 38.4116 27.8244C39.5251 25.2111 40.097 22.3149 39.9875 19.2726C39.6103 8.70975 30.9276 0.19135 20.3617 0.00272783C9.0292 -0.198063 -0.198063 9.0292 0.00272783 20.3617C0.19135 30.9276 8.70976 39.6103 19.2695 39.9875C21.9285 40.0818 24.4749 39.6559 26.8205 38.8041C28.6885 38.1256 30.7177 38.01 32.6282 38.5546L37.3803 39.9054C38.9166 40.3435 40.3374 38.9227 39.9023 37.3864ZM11.0645 19.9997C11.0645 15.0651 15.0651 11.0645 19.9997 11.0645C24.9343 11.0645 28.9349 15.0651 28.9349 19.9997C28.9349 24.9343 24.9343 28.9349 19.9997 28.9349C15.0651 28.9349 11.0645 24.9343 11.0645 19.9997Z" fill="url(#paint0_linear)"/>
<path d="M37.8917 29.0204C37.8917 29.0204 37.8217 28.7983 37.6848 28.4028C36.62 25.3848 31.442 12.3182 21.2047 11.15C25.5704 11.7371 28.9349 15.4758 28.9349 19.9997C28.9349 24.9343 24.9343 28.9349 19.9997 28.9349L20 39.9969C22.3943 39.9969 24.6912 39.5801 26.8208 38.8074C28.6888 38.129 30.718 38.0134 32.6285 38.5579L37.3806 39.9087C38.9169 40.3438 40.3374 38.9258 39.9023 37.3864L38.2047 31.3961C38.0039 30.6933 37.9495 29.9574 38.0377 29.2424L37.8917 29.0204Z" fill="url(#paint1_linear)"/>
<defs>
<linearGradient id="paint0_linear" x1="4.85174" y1="-0.000474682" x2="40.3752" y2="2.96995" gradientUnits="userSpaceOnUse">
<stop stop-color="#DF5950"/>
<stop offset="1" stop-color="#451046"/>
</linearGradient>
<linearGradient id="paint1_linear" x1="4.85174" y1="-0.000474682" x2="40.3752" y2="2.96995" gradientUnits="userSpaceOnUse">
<stop stop-color="#DF5950"/>
<stop offset="1" stop-color="#451046"/>
</linearGradient>
</defs>
</svg>
